# 
# Wavefront OBJ file
# Converted by the DEEP Exploration Deep Exploration 6.3 6.3.3.8068
# Right Hemisphere, LTD
# http://www.righthemisphere.com/
# 
mtllib pillar.mtl
# object Cylinder #5
g Cylinder__5
v 1.00000 0.00000 0.00000
v 0.99510 0.09800 0.00000
v 0.98070 0.19500 0.00000
v 0.95690 0.29020 0.00000
v 0.92380 0.38260 0.00000
v 0.88190 0.47130 0.00000
v 0.83140 0.55550 0.00000
v 0.77300 0.63430 0.00000
v 0.70710 0.70710 0.00000
v 0.63430 0.77300 0.00000
v 0.55550 0.83140 0.00000
v 0.47130 0.88190 0.00000
v 0.38260 0.92380 0.00000
v 0.29020 0.95690 0.00000
v 0.19500 0.98070 0.00000
v 0.09800 0.99510 0.00000
v 0.00000 1.00000 0.00000
v -0.09800 0.99510 0.00000
v -0.19500 0.98070 0.00000
v -0.29020 0.95690 0.00000
v -0.38260 0.92380 0.00000
v -0.47130 0.88190 0.00000
v -0.55550 0.83140 0.00000
v -0.63430 0.77300 0.00000
v -0.70710 0.70710 0.00000
v -0.77300 0.63430 0.00000
v -0.83140 0.55550 0.00000
v -0.88190 0.47130 0.00000
v -0.92380 0.38260 0.00000
v -0.95690 0.29020 0.00000
v -0.98070 0.19500 0.00000
v -0.99510 0.09800 0.00000
v -1.00000 0.00000 0.00000
v -0.99510 -0.09800 0.00000
v -0.98070 -0.19500 0.00000
v -0.95690 -0.29020 0.00000
v -0.92380 -0.38260 0.00000
v -0.88190 -0.47130 0.00000
v -0.83140 -0.55550 0.00000
v -0.77300 -0.63430 0.00000
v -0.70710 -0.70710 0.00000
v -0.63430 -0.77300 0.00000
v -0.55550 -0.83140 0.00000
v -0.47130 -0.88190 0.00000
v -0.38260 -0.92380 0.00000
v -0.29020 -0.95690 0.00000
v -0.19500 -0.98070 0.00000
v -0.09800 -0.99510 0.00000
v 0.00000 -1.00000 0.00000
v 0.09800 -0.99510 0.00000
v 0.19500 -0.98070 0.00000
v 0.29020 -0.95690 0.00000
v 0.38260 -0.92380 0.00000
v 0.47130 -0.88190 0.00000
v 0.55550 -0.83140 0.00000
v 0.63430 -0.77300 0.00000
v 0.70710 -0.70710 0.00000
v 0.77300 -0.63430 0.00000
v 0.83140 -0.55550 0.00000
v 0.88190 -0.47130 0.00000
v 0.92380 -0.38260 0.00000
v 0.95690 -0.29020 0.00000
v 0.98070 -0.19500 0.00000
v 0.99510 -0.09800 0.00000
v 1.00000 0.00000 1.00000
v 0.99510 0.09800 1.00000
v 0.98070 0.19500 1.00000
v 0.95690 0.29020 1.00000
v 0.92380 0.38260 1.00000
v 0.88190 0.47130 1.00000
v 0.83140 0.55550 1.00000
v 0.77300 0.63430 1.00000
v 0.70710 0.70710 1.00000
v 0.63430 0.77300 1.00000
v 0.55550 0.83140 1.00000
v 0.47130 0.88190 1.00000
v 0.38260 0.92380 1.00000
v 0.29020 0.95690 1.00000
v 0.19500 0.98070 1.00000
v 0.09800 0.99510 1.00000
v 0.00000 1.00000 1.00000
v -0.09800 0.99510 1.00000
v -0.19500 0.98070 1.00000
v -0.29020 0.95690 1.00000
v -0.38260 0.92380 1.00000
v -0.47130 0.88190 1.00000
v -0.55550 0.83140 1.00000
v -0.63430 0.77300 1.00000
v -0.70710 0.70710 1.00000
v -0.77300 0.63430 1.00000
v -0.83140 0.55550 1.00000
v -0.88190 0.47130 1.00000
v -0.92380 0.38260 1.00000
v -0.95690 0.29020 1.00000
v -0.98070 0.19500 1.00000
v -0.99510 0.09800 1.00000
v -1.00000 0.00000 1.00000
v -0.99510 -0.09800 1.00000
v -0.98070 -0.19500 1.00000
v -0.95690 -0.29020 1.00000
v -0.92380 -0.38260 1.00000
v -0.88190 -0.47130 1.00000
v -0.83140 -0.55550 1.00000
v -0.77300 -0.63430 1.00000
v -0.70710 -0.70710 1.00000
v -0.63430 -0.77300 1.00000
v -0.55550 -0.83140 1.00000
v -0.47130 -0.88190 1.00000
v -0.38260 -0.92380 1.00000
v -0.29020 -0.95690 1.00000
v -0.19500 -0.98070 1.00000
v -0.09800 -0.99510 1.00000
v 0.00000 -1.00000 1.00000
v 0.09800 -0.99510 1.00000
v 0.19500 -0.98070 1.00000
v 0.29020 -0.95690 1.00000
v 0.38260 -0.92380 1.00000
v 0.47130 -0.88190 1.00000
v 0.55550 -0.83140 1.00000
v 0.63430 -0.77300 1.00000
v 0.70710 -0.70710 1.00000
v 0.77300 -0.63430 1.00000
v 0.83140 -0.55550 1.00000
v 0.88190 -0.47130 1.00000
v 0.92380 -0.38260 1.00000
v 0.95690 -0.29020 1.00000
v 0.98070 -0.19500 1.00000
v 0.99510 -0.09800 1.00000
v 0.00000 0.00000 0.00000
v 0.00000 0.00000 1.00000
# 130 verticies
vt 0.00000 1.00000
vt 0.01563 1.00000
vt 0.01563 0.00000
vt 0.00000 0.00000
vt 0.03125 1.00000
vt 0.03125 0.00000
vt 0.04688 1.00000
vt 0.04688 0.00000
vt 0.06250 1.00000
vt 0.06250 0.00000
vt 0.07813 1.00000
vt 0.07813 0.00000
vt 0.09375 1.00000
vt 0.09375 0.00000
vt 0.10937 1.00000
vt 0.10937 0.00000
vt 0.12500 1.00000
vt 0.12500 0.00000
vt 0.14062 1.00000
vt 0.14062 0.00000
vt 0.15625 1.00000
vt 0.15625 0.00000
vt 0.17187 1.00000
vt 0.17187 0.00000
vt 0.18750 1.00000
vt 0.18750 0.00000
vt 0.20313 1.00000
vt 0.20313 0.00000
vt 0.21875 1.00000
vt 0.21875 0.00000
vt 0.23438 1.00000
vt 0.23438 0.00000
vt 0.25000 1.00000
vt 0.25000 0.00000
vt 0.26563 1.00000
vt 0.26563 0.00000
vt 0.28125 1.00000
vt 0.28125 0.00000
vt 0.29688 1.00000
vt 0.29688 0.00000
vt 0.31250 1.00000
vt 0.31250 0.00000
vt 0.32813 1.00000
vt 0.32813 0.00000
vt 0.34375 1.00000
vt 0.34375 0.00000
vt 0.35938 1.00000
vt 0.35938 0.00000
vt 0.37500 1.00000
vt 0.37500 0.00000
vt 0.39063 1.00000
vt 0.39063 0.00000
vt 0.40625 1.00000
vt 0.40625 0.00000
vt 0.42188 1.00000
vt 0.42188 0.00000
vt 0.43750 1.00000
vt 0.43750 0.00000
vt 0.45313 1.00000
vt 0.45313 0.00000
vt 0.46875 1.00000
vt 0.46875 0.00000
vt 0.48438 1.00000
vt 0.48438 0.00000
vt 0.50000 1.00000
vt 0.50000 0.00000
vt 0.51563 1.00000
vt 0.51563 0.00000
vt 0.53125 1.00000
vt 0.53125 0.00000
vt 0.54688 1.00000
vt 0.54688 0.00000
vt 0.56250 1.00000
vt 0.56250 0.00000
vt 0.57813 1.00000
vt 0.57813 0.00000
vt 0.59375 1.00000
vt 0.59375 0.00000
vt 0.60938 1.00000
vt 0.60938 0.00000
vt 0.62500 1.00000
vt 0.62500 0.00000
vt 0.64063 1.00000
vt 0.64063 0.00000
vt 0.65625 1.00000
vt 0.65625 0.00000
vt 0.67188 1.00000
vt 0.67188 0.00000
vt 0.68750 1.00000
vt 0.68750 0.00000
vt 0.70313 1.00000
vt 0.70313 0.00000
vt 0.71875 1.00000
vt 0.71875 0.00000
vt 0.73437 1.00000
vt 0.73437 0.00000
vt 0.75000 1.00000
vt 0.75000 0.00000
vt 0.76562 1.00000
vt 0.76562 0.00000
vt 0.78125 1.00000
vt 0.78125 0.00000
vt 0.79687 1.00000
vt 0.79687 0.00000
vt 0.81250 1.00000
vt 0.81250 0.00000
vt 0.82812 1.00000
vt 0.82812 0.00000
vt 0.84375 1.00000
vt 0.84375 0.00000
vt 0.85937 1.00000
vt 0.85937 0.00000
vt 0.87500 1.00000
vt 0.87500 0.00000
vt 0.89062 1.00000
vt 0.89062 0.00000
vt 0.90625 1.00000
vt 0.90625 0.00000
vt 0.92187 1.00000
vt 0.92187 0.00000
vt 0.93750 1.00000
vt 0.93750 0.00000
vt 0.95312 1.00000
vt 0.95312 0.00000
vt 0.96875 1.00000
vt 0.96875 0.00000
vt 0.98437 1.00000
vt 0.98437 0.00000
vt 1.00000 1.00000
vt 1.00000 0.00000
vt 1.50000 -0.50000
vt 1.99759 -0.54901
vt 2.00000 -0.50000
vt 1.99039 -0.59755
vt 1.97847 -0.64514
vt 1.96194 -0.69134
vt 1.94096 -0.73570
vt 1.91573 -0.77779
vt 1.88651 -0.81720
vt 1.85355 -0.85355
vt 1.81720 -0.88651
vt 1.77779 -0.91573
vt 1.73570 -0.94096
vt 1.69134 -0.96194
vt 1.64514 -0.97847
vt 1.59755 -0.99039
vt 1.54901 -0.99759
vt 1.50000 -1.00000
vt 1.45099 -0.99759
vt 1.40245 -0.99039
vt 1.35486 -0.97847
vt 1.30866 -0.96194
vt 1.26430 -0.94096
vt 1.22221 -0.91573
vt 1.18280 -0.88651
vt 1.14645 -0.85355
vt 1.11349 -0.81720
vt 1.08426 -0.77778
vt 1.05904 -0.73570
vt 1.03806 -0.69134
vt 1.02153 -0.64514
vt 1.00961 -0.59754
vt 1.00241 -0.54901
vt 1.00000 -0.50000
vt 1.00241 -0.45099
vt 1.00961 -0.40245
vt 1.02153 -0.35486
vt 1.03806 -0.30866
vt 1.05904 -0.26430
vt 1.08427 -0.22221
vt 1.11350 -0.18280
vt 1.14645 -0.14645
vt 1.18280 -0.11349
vt 1.22222 -0.08426
vt 1.26430 -0.05904
vt 1.30866 -0.03806
vt 1.35486 -0.02153
vt 1.40245 -0.00961
vt 1.45099 -0.00241
vt 1.50000 0.00000
vt 1.54901 -0.00241
vt 1.59754 -0.00961
vt 1.64514 -0.02153
vt 1.69134 -0.03806
vt 1.73570 -0.05904
vt 1.77778 -0.08426
vt 1.81720 -0.11349
vt 1.85355 -0.14645
vt 1.88650 -0.18280
vt 1.91573 -0.22221
vt 1.94096 -0.26430
vt 1.96194 -0.30866
vt 1.97847 -0.35486
vt 1.99039 -0.40245
vt 1.99759 -0.45099
vt 2.00000 -0.50000
vt 0.50000 -0.50000
vt 1.00000 -0.50000
vt 0.99759 -0.54901
vt 0.99039 -0.59755
vt 0.97847 -0.64514
vt 0.96194 -0.69134
vt 0.94096 -0.73570
vt 0.91573 -0.77779
vt 0.88651 -0.81720
vt 0.85355 -0.85355
vt 0.81720 -0.88651
vt 0.77779 -0.91573
vt 0.73570 -0.94096
vt 0.69134 -0.96194
vt 0.64514 -0.97847
vt 0.59755 -0.99039
vt 0.54901 -0.99759
vt 0.50000 -1.00000
vt 0.45099 -0.99759
vt 0.40245 -0.99039
vt 0.35486 -0.97847
vt 0.30866 -0.96194
vt 0.26430 -0.94096
vt 0.22221 -0.91573
vt 0.18280 -0.88651
vt 0.14645 -0.85355
vt 0.11349 -0.81720
vt 0.08427 -0.77778
vt 0.05904 -0.73570
vt 0.03806 -0.69134
vt 0.02153 -0.64514
vt 0.00961 -0.59754
vt 0.00241 -0.54901
vt 0.00000 -0.50000
vt 0.00241 -0.45099
vt 0.00961 -0.40245
vt 0.02153 -0.35486
vt 0.03806 -0.30866
vt 0.05904 -0.26430
vt 0.08427 -0.22221
vt 0.11350 -0.18280
vt 0.14645 -0.14645
vt 0.18280 -0.11349
vt 0.22222 -0.08426
vt 0.26430 -0.05904
vt 0.30866 -0.03806
vt 0.35486 -0.02153
vt 0.40245 -0.00961
vt 0.45099 -0.00241
vt 0.50000 0.00000
vt 0.54901 -0.00241
vt 0.59754 -0.00961
vt 0.64514 -0.02153
vt 0.69134 -0.03806
vt 0.73570 -0.05904
vt 0.77778 -0.08426
vt 0.81720 -0.11349
vt 0.85355 -0.14645
vt 0.88650 -0.18280
vt 0.91573 -0.22221
vt 0.94096 -0.26430
vt 0.96194 -0.30866
vt 0.97847 -0.35486
vt 0.99039 -0.40245
vt 0.99759 -0.45099
vt 1.00000 -0.50000
# 262 texture verticies
vn 0.99986 0.01666 0.00000
vn 0.99340 0.11466 0.00000
vn 0.99661 0.08233 0.00000
vn 0.99986 -0.01666 0.00000
vn 0.97752 0.21086 0.00000
vn 0.98386 0.17893 0.00000
vn 0.95203 0.30601 0.00000
vn 0.96161 0.27440 0.00000
vn 0.91757 0.39758 0.00000
vn 0.92999 0.36759 0.00000
vn 0.87407 0.48580 0.00000
vn 0.88962 0.45669 0.00000
vn 0.82234 0.56900 0.00000
vn 0.84041 0.54194 0.00000
vn 0.76286 0.64656 0.00000
vn 0.78356 0.62131 0.00000
vn 0.69529 0.71873 0.00000
vn 0.71873 0.69529 0.00000
vn 0.62131 0.78357 0.00000
vn 0.64656 0.76286 0.00000
vn 0.54194 0.84041 0.00000
vn 0.56900 0.82234 0.00000
vn 0.45669 0.88962 0.00000
vn 0.48580 0.87407 0.00000
vn 0.36759 0.92999 0.00000
vn 0.39758 0.91757 0.00000
vn 0.27440 0.96161 0.00000
vn 0.30601 0.95203 0.00000
vn 0.17893 0.98386 0.00000
vn 0.21086 0.97752 0.00000
vn 0.08233 0.99661 0.00000
vn 0.11466 0.99340 0.00000
vn -0.01666 0.99986 0.00000
vn 0.01666 0.99986 0.00000
vn -0.11466 0.99340 0.00000
vn -0.08233 0.99661 0.00000
vn -0.21086 0.97752 0.00000
vn -0.17893 0.98386 0.00000
vn -0.30601 0.95203 0.00000
vn -0.27440 0.96161 0.00000
vn -0.39758 0.91757 0.00000
vn -0.36759 0.92999 0.00000
vn -0.48580 0.87407 0.00000
vn -0.45669 0.88962 0.00000
vn -0.56900 0.82234 0.00000
vn -0.54194 0.84041 0.00000
vn -0.64656 0.76286 0.00000
vn -0.62131 0.78356 0.00000
vn -0.71873 0.69529 0.00000
vn -0.69529 0.71873 0.00000
vn -0.78357 0.62131 0.00000
vn -0.76286 0.64656 0.00000
vn -0.84041 0.54194 0.00000
vn -0.82234 0.56900 0.00000
vn -0.88962 0.45669 0.00000
vn -0.87407 0.48580 0.00000
vn -0.92999 0.36759 0.00000
vn -0.91757 0.39758 0.00000
vn -0.96161 0.27440 0.00000
vn -0.95203 0.30601 0.00000
vn -0.98386 0.17893 0.00000
vn -0.97752 0.21086 0.00000
vn -0.99661 0.08233 0.00000
vn -0.99340 0.11466 0.00000
vn -0.99986 -0.01666 0.00000
vn -0.99986 0.01666 0.00000
vn -0.99340 -0.11466 0.00000
vn -0.99661 -0.08233 0.00000
vn -0.97752 -0.21086 0.00000
vn -0.98386 -0.17893 0.00000
vn -0.95203 -0.30601 0.00000
vn -0.96161 -0.27440 0.00000
vn -0.91757 -0.39758 0.00000
vn -0.92999 -0.36759 0.00000
vn -0.87407 -0.48580 0.00000
vn -0.88962 -0.45669 0.00000
vn -0.82234 -0.56900 0.00000
vn -0.84041 -0.54194 0.00000
vn -0.76286 -0.64656 0.00000
vn -0.78356 -0.62131 0.00000
vn -0.69529 -0.71873 0.00000
vn -0.71873 -0.69529 0.00000
vn -0.62131 -0.78357 0.00000
vn -0.64656 -0.76286 0.00000
vn -0.54194 -0.84041 0.00000
vn -0.56900 -0.82234 0.00000
vn -0.45669 -0.88962 0.00000
vn -0.48580 -0.87407 0.00000
vn -0.36759 -0.92999 0.00000
vn -0.39758 -0.91757 0.00000
vn -0.27440 -0.96161 0.00000
vn -0.30601 -0.95203 0.00000
vn -0.17893 -0.98386 0.00000
vn -0.21086 -0.97752 0.00000
vn -0.08233 -0.99661 0.00000
vn -0.11466 -0.99340 0.00000
vn 0.01666 -0.99986 0.00000
vn -0.01666 -0.99986 0.00000
vn 0.11466 -0.99340 0.00000
vn 0.08233 -0.99661 0.00000
vn 0.21086 -0.97752 0.00000
vn 0.17893 -0.98386 0.00000
vn 0.30601 -0.95203 0.00000
vn 0.27440 -0.96161 0.00000
vn 0.39758 -0.91757 0.00000
vn 0.36759 -0.92999 0.00000
vn 0.48580 -0.87407 0.00000
vn 0.45669 -0.88962 0.00000
vn 0.56900 -0.82234 0.00000
vn 0.54194 -0.84041 0.00000
vn 0.64656 -0.76286 0.00000
vn 0.62131 -0.78356 0.00000
vn 0.71873 -0.69529 0.00000
vn 0.69529 -0.71873 0.00000
vn 0.78357 -0.62131 0.00000
vn 0.76286 -0.64656 0.00000
vn 0.84041 -0.54194 0.00000
vn 0.82234 -0.56900 0.00000
vn 0.88962 -0.45669 0.00000
vn 0.87407 -0.48580 0.00000
vn 0.92999 -0.36759 0.00000
vn 0.91757 -0.39758 0.00000
vn 0.96161 -0.27440 0.00000
vn 0.95203 -0.30601 0.00000
vn 0.98386 -0.17893 0.00000
vn 0.97752 -0.21086 0.00000
vn 0.99661 -0.08233 0.00000
vn 0.99340 -0.11466 0.00000
vn 0.00000 0.00000 -1.00000
vn 0.00000 0.00000 1.00000
# 130 normals
usemtl Explorer_Default
f  1/1/1 2/2/2 66/3/3
f  1/1/1 66/3/3 65/4/4
f  2/2/2 3/5/5 67/6/6
f  2/2/2 67/6/6 66/3/3
f  3/5/5 4/7/7 68/8/8
f  3/5/5 68/8/8 67/6/6
f  4/7/7 5/9/9 69/10/10
f  4/7/7 69/10/10 68/8/8
f  5/9/9 6/11/11 70/12/12
f  5/9/9 70/12/12 69/10/10
f  6/11/11 7/13/13 71/14/14
f  6/11/11 71/14/14 70/12/12
f  7/13/13 8/15/15 72/16/16
f  7/13/13 72/16/16 71/14/14
f  8/15/15 9/17/17 73/18/18
f  8/15/15 73/18/18 72/16/16
f  9/17/17 10/19/19 74/20/20
f  9/17/17 74/20/20 73/18/18
f  10/19/19 11/21/21 75/22/22
f  10/19/19 75/22/22 74/20/20
f  11/21/21 12/23/23 76/24/24
f  11/21/21 76/24/24 75/22/22
f  12/23/23 13/25/25 77/26/26
f  12/23/23 77/26/26 76/24/24
f  13/25/25 14/27/27 78/28/28
f  13/25/25 78/28/28 77/26/26
f  14/27/27 15/29/29 79/30/30
f  14/27/27 79/30/30 78/28/28
f  15/29/29 16/31/31 80/32/32
f  15/29/29 80/32/32 79/30/30
f  16/31/31 17/33/33 81/34/34
f  16/31/31 81/34/34 80/32/32
f  17/33/33 18/35/35 82/36/36
f  17/33/33 82/36/36 81/34/34
f  18/35/35 19/37/37 83/38/38
f  18/35/35 83/38/38 82/36/36
f  19/37/37 20/39/39 84/40/40
f  19/37/37 84/40/40 83/38/38
f  20/39/39 21/41/41 85/42/42
f  20/39/39 85/42/42 84/40/40
f  21/41/41 22/43/43 86/44/44
f  21/41/41 86/44/44 85/42/42
f  22/43/43 23/45/45 87/46/46
f  22/43/43 87/46/46 86/44/44
f  23/45/45 24/47/47 88/48/48
f  23/45/45 88/48/48 87/46/46
f  24/47/47 25/49/49 89/50/50
f  24/47/47 89/50/50 88/48/48
f  25/49/49 26/51/51 90/52/52
f  25/49/49 90/52/52 89/50/50
f  26/51/51 27/53/53 91/54/54
f  26/51/51 91/54/54 90/52/52
f  27/53/53 28/55/55 92/56/56
f  27/53/53 92/56/56 91/54/54
f  28/55/55 29/57/57 93/58/58
f  28/55/55 93/58/58 92/56/56
f  29/57/57 30/59/59 94/60/60
f  29/57/57 94/60/60 93/58/58
f  30/59/59 31/61/61 95/62/62
f  30/59/59 95/62/62 94/60/60
f  31/61/61 32/63/63 96/64/64
f  31/61/61 96/64/64 95/62/62
f  32/63/63 33/65/65 97/66/66
f  32/63/63 97/66/66 96/64/64
f  33/65/65 34/67/67 98/68/68
f  33/65/65 98/68/68 97/66/66
f  34/67/67 35/69/69 99/70/70
f  34/67/67 99/70/70 98/68/68
f  35/69/69 36/71/71 100/72/72
f  35/69/69 100/72/72 99/70/70
f  36/71/71 37/73/73 101/74/74
f  36/71/71 101/74/74 100/72/72
f  37/73/73 38/75/75 102/76/76
f  37/73/73 102/76/76 101/74/74
f  38/75/75 39/77/77 103/78/78
f  38/75/75 103/78/78 102/76/76
f  39/77/77 40/79/79 104/80/80
f  39/77/77 104/80/80 103/78/78
f  40/79/79 41/81/81 105/82/82
f  40/79/79 105/82/82 104/80/80
f  41/81/81 42/83/83 106/84/84
f  41/81/81 106/84/84 105/82/82
f  42/83/83 43/85/85 107/86/86
f  42/83/83 107/86/86 106/84/84
f  43/85/85 44/87/87 108/88/88
f  43/85/85 108/88/88 107/86/86
f  44/87/87 45/89/89 109/90/90
f  44/87/87 109/90/90 108/88/88
f  45/89/89 46/91/91 110/92/92
f  45/89/89 110/92/92 109/90/90
f  46/91/91 47/93/93 111/94/94
f  46/91/91 111/94/94 110/92/92
f  47/93/93 48/95/95 112/96/96
f  47/93/93 112/96/96 111/94/94
f  48/95/95 49/97/97 113/98/98
f  48/95/95 113/98/98 112/96/96
f  49/97/97 50/99/99 114/100/100
f  49/97/97 114/100/100 113/98/98
f  50/99/99 51/101/101 115/102/102
f  50/99/99 115/102/102 114/100/100
f  51/101/101 52/103/103 116/104/104
f  51/101/101 116/104/104 115/102/102
f  52/103/103 53/105/105 117/106/106
f  52/103/103 117/106/106 116/104/104
f  53/105/105 54/107/107 118/108/108
f  53/105/105 118/108/108 117/106/106
f  54/107/107 55/109/109 119/110/110
f  54/107/107 119/110/110 118/108/108
f  55/109/109 56/111/111 120/112/112
f  55/109/109 120/112/112 119/110/110
f  56/111/111 57/113/113 121/114/114
f  56/111/111 121/114/114 120/112/112
f  57/113/113 58/115/115 122/116/116
f  57/113/113 122/116/116 121/114/114
f  58/115/115 59/117/117 123/118/118
f  58/115/115 123/118/118 122/116/116
f  59/117/117 60/119/119 124/120/120
f  59/117/117 124/120/120 123/118/118
f  60/119/119 61/121/121 125/122/122
f  60/119/119 125/122/122 124/120/120
f  61/121/121 62/123/123 126/124/124
f  61/121/121 126/124/124 125/122/122
f  62/123/123 63/125/125 127/126/126
f  62/123/123 127/126/126 126/124/124
f  63/125/125 64/127/127 128/128/128
f  63/125/125 128/128/128 127/126/126
f  64/127/127 1/129/1 65/130/4
f  64/127/127 65/130/4 128/128/128
f  129/131/129 2/132/129 1/133/129
f  129/131/129 3/134/129 2/132/129
f  129/131/129 4/135/129 3/134/129
f  129/131/129 5/136/129 4/135/129
f  129/131/129 6/137/129 5/136/129
f  129/131/129 7/138/129 6/137/129
f  129/131/129 8/139/129 7/138/129
f  129/131/129 9/140/129 8/139/129
f  129/131/129 10/141/129 9/140/129
f  129/131/129 11/142/129 10/141/129
f  129/131/129 12/143/129 11/142/129
f  129/131/129 13/144/129 12/143/129
f  129/131/129 14/145/129 13/144/129
f  129/131/129 15/146/129 14/145/129
f  129/131/129 16/147/129 15/146/129
f  129/131/129 17/148/129 16/147/129
f  129/131/129 18/149/129 17/148/129
f  129/131/129 19/150/129 18/149/129
f  129/131/129 20/151/129 19/150/129
f  129/131/129 21/152/129 20/151/129
f  129/131/129 22/153/129 21/152/129
f  129/131/129 23/154/129 22/153/129
f  129/131/129 24/155/129 23/154/129
f  129/131/129 25/156/129 24/155/129
f  129/131/129 26/157/129 25/156/129
f  129/131/129 27/158/129 26/157/129
f  129/131/129 28/159/129 27/158/129
f  129/131/129 29/160/129 28/159/129
f  129/131/129 30/161/129 29/160/129
f  129/131/129 31/162/129 30/161/129
f  129/131/129 32/163/129 31/162/129
f  129/131/129 33/164/129 32/163/129
f  129/131/129 34/165/129 33/164/129
f  129/131/129 35/166/129 34/165/129
f  129/131/129 36/167/129 35/166/129
f  129/131/129 37/168/129 36/167/129
f  129/131/129 38/169/129 37/168/129
f  129/131/129 39/170/129 38/169/129
f  129/131/129 40/171/129 39/170/129
f  129/131/129 41/172/129 40/171/129
f  129/131/129 42/173/129 41/172/129
f  129/131/129 43/174/129 42/173/129
f  129/131/129 44/175/129 43/174/129
f  129/131/129 45/176/129 44/175/129
f  129/131/129 46/177/129 45/176/129
f  129/131/129 47/178/129 46/177/129
f  129/131/129 48/179/129 47/178/129
f  129/131/129 49/180/129 48/179/129
f  129/131/129 50/181/129 49/180/129
f  129/131/129 51/182/129 50/181/129
f  129/131/129 52/183/129 51/182/129
f  129/131/129 53/184/129 52/183/129
f  129/131/129 54/185/129 53/184/129
f  129/131/129 55/186/129 54/185/129
f  129/131/129 56/187/129 55/186/129
f  129/131/129 57/188/129 56/187/129
f  129/131/129 58/189/129 57/188/129
f  129/131/129 59/190/129 58/189/129
f  129/131/129 60/191/129 59/190/129
f  129/131/129 61/192/129 60/191/129
f  129/131/129 62/193/129 61/192/129
f  129/131/129 63/194/129 62/193/129
f  129/131/129 64/195/129 63/194/129
f  129/131/129 1/196/129 64/195/129
f  130/197/130 65/198/130 66/199/130
f  130/197/130 66/199/130 67/200/130
f  130/197/130 67/200/130 68/201/130
f  130/197/130 68/201/130 69/202/130
f  130/197/130 69/202/130 70/203/130
f  130/197/130 70/203/130 71/204/130
f  130/197/130 71/204/130 72/205/130
f  130/197/130 72/205/130 73/206/130
f  130/197/130 73/206/130 74/207/130
f  130/197/130 74/207/130 75/208/130
f  130/197/130 75/208/130 76/209/130
f  130/197/130 76/209/130 77/210/130
f  130/197/130 77/210/130 78/211/130
f  130/197/130 78/211/130 79/212/130
f  130/197/130 79/212/130 80/213/130
f  130/197/130 80/213/130 81/214/130
f  130/197/130 81/214/130 82/215/130
f  130/197/130 82/215/130 83/216/130
f  130/197/130 83/216/130 84/217/130
f  130/197/130 84/217/130 85/218/130
f  130/197/130 85/218/130 86/219/130
f  130/197/130 86/219/130 87/220/130
f  130/197/130 87/220/130 88/221/130
f  130/197/130 88/221/130 89/222/130
f  130/197/130 89/222/130 90/223/130
f  130/197/130 90/223/130 91/224/130
f  130/197/130 91/224/130 92/225/130
f  130/197/130 92/225/130 93/226/130
f  130/197/130 93/226/130 94/227/130
f  130/197/130 94/227/130 95/228/130
f  130/197/130 95/228/130 96/229/130
f  130/197/130 96/229/130 97/230/130
f  130/197/130 97/230/130 98/231/130
f  130/197/130 98/231/130 99/232/130
f  130/197/130 99/232/130 100/233/130
f  130/197/130 100/233/130 101/234/130
f  130/197/130 101/234/130 102/235/130
f  130/197/130 102/235/130 103/236/130
f  130/197/130 103/236/130 104/237/130
f  130/197/130 104/237/130 105/238/130
f  130/197/130 105/238/130 106/239/130
f  130/197/130 106/239/130 107/240/130
f  130/197/130 107/240/130 108/241/130
f  130/197/130 108/241/130 109/242/130
f  130/197/130 109/242/130 110/243/130
f  130/197/130 110/243/130 111/244/130
f  130/197/130 111/244/130 112/245/130
f  130/197/130 112/245/130 113/246/130
f  130/197/130 113/246/130 114/247/130
f  130/197/130 114/247/130 115/248/130
f  130/197/130 115/248/130 116/249/130
f  130/197/130 116/249/130 117/250/130
f  130/197/130 117/250/130 118/251/130
f  130/197/130 118/251/130 119/252/130
f  130/197/130 119/252/130 120/253/130
f  130/197/130 120/253/130 121/254/130
f  130/197/130 121/254/130 122/255/130
f  130/197/130 122/255/130 123/256/130
f  130/197/130 123/256/130 124/257/130
f  130/197/130 124/257/130 125/258/130
f  130/197/130 125/258/130 126/259/130
f  130/197/130 126/259/130 127/260/130
f  130/197/130 127/260/130 128/261/130
f  130/197/130 128/261/130 65/262/130
